<?xml version="1.0" standalone="no"?><!DOCTYPE svg PUBLIC "-//W3C//DTD SVG 1.1//EN" "http://www.w3.org/Graphics/SVG/1.1/DTD/svg11.dtd"><svg t="1752139626609" class="icon" viewBox="0 0 1024 1024" version="1.1" xmlns="http://www.w3.org/2000/svg" p-id="5352" width="128" height="128" xmlns:xlink="http://www.w3.org/1999/xlink"><path d="M750.174815 1020.852148H253.724444c-80.70637 0-146.280296-70.162963-146.280296-156.368592V181.551407c0-86.20563 65.573926-156.254815 146.318222-156.254814h496.450371c80.744296 0 146.394074 70.049185 146.394074 156.254814v682.932149c0 86.20563-65.649778 156.368593-146.394074 156.368592z" fill="#FF6A00" p-id="5353"></path><path d="M495.350519 476.16a40.163556 40.163556 0 1 1-2.389334 80.175407c-0.796444-0.265481-1.592889-0.265481-2.123852-0.265481a39.860148 39.860148 0 0 1-37.69837-42.211556 39.860148 39.860148 0 0 1 42.211556-37.69837z m143.777185-26.472296c14.942815 16.270222 13.880889 41.604741-2.389334 56.547555-7.736889 7.205926-17.370074 10.695111-26.927407 10.695111a42.021926 42.021926 0 0 1-29.658074-13.084444 40.049778 40.049778 0 0 1 58.974815-54.158222z m-232.978963-9.633185c14.373926 16.801185 12.781037 41.832296-4.020148 56.509629-7.471407 6.637037-16.763259 9.860741-26.093037 9.860741a40.087704 40.087704 0 1 1 30.113185-66.37037z m93.221926-39.177482a26.661926 26.661926 0 0 1-1.592889 53.285926h-1.365334a26.661926 26.661926 0 1 1 2.958223-53.285926z m69.897481-9.860741a26.624 26.624 0 0 1-19.797333 44.600889 26.624 26.624 0 0 1-17.901037-46.269629 26.624 26.624 0 0 1 37.69837 1.630814zM468.764444 385.706667a26.624 26.624 0 1 1-40.315259 34.967703 26.624 26.624 0 1 1 40.315259-34.967703z m192.853334-55.371852a39.973926 39.973926 0 0 1-1.061926 80.023704h-1.061926a39.973926 39.973926 0 0 1-38.949926-41.073778c0.530963-22.148741 18.962963-39.442963 41.073778-38.949926zM346.832593 313.268148c22.148741 1.896296 38.418963 21.352296 36.560592 43.235556-1.896296 20.821333-19.228444 36.560593-39.784296 36.560592a7.585185 7.585185 0 0 1-3.451259 0 40.011852 40.011852 0 0 1 6.674963-79.796148z m226.304 19.114667a26.775704 26.775704 0 0 1 25.865481 27.496296 26.775704 26.775704 0 0 1-26.661926 25.865482h-0.796444a26.775704 26.775704 0 0 1-25.865482-27.496297 26.775704 26.775704 0 0 1 27.458371-25.865481z m-139.112297-7.850667a26.775704 26.775704 0 1 1-2.389333 53.43763c-0.83437-0.265481-1.365333-0.265481-2.161778-0.265482a26.661926 26.661926 0 1 1 4.551111-53.172148z m68.039111 2.351408c11.643259 0 21.124741 9.481481 21.124741 21.12474l-0.265481 3.45126a21.162667 21.162667 0 0 1-42.021926-3.413334c0-11.719111 9.481481-21.162667 21.162666-21.162666z m69.480297-37.470815a26.586074 26.586074 0 1 1-38.191408 37.091555 26.358519 26.358519 0 0 1 0.530963-37.622518 26.586074 26.586074 0 0 1 37.660445 0.530963z m-96.256-6.750815l0.151703 0.18963v0.151703l-0.265481 3.602963c0 7.35763 3.034074 14.032593 7.850667 18.849185l0.682666 0.644741v0.834371a26.396444 26.396444 0 0 1-9.443555 16.156444 26.358519 26.358519 0 0 1-37.546667-3.716741 26.624 26.624 0 0 1 38.570667-36.712296z m26.548148-22.755556c14.715259 0 26.737778 12.022519 26.737778 26.699852a26.775704 26.775704 0 0 1-42.970074 21.124741l-1.896297-1.630815 0.341334-2.844444a26.737778 26.737778 0 0 0-3.792593-14.487704l-2.275556-3.223704-2.541037-2.69274 0.682667-3.299556a26.775704 26.775704 0 0 1 25.751704-19.607704z m141.767111-28.368592a40.049778 40.049778 0 0 1-0.83437 56.623407 40.277333 40.277333 0 0 1-56.585482-0.796444 40.049778 40.049778 0 0 1 57.419852-55.826963z m-211.171556-7.130074a40.201481 40.201481 0 0 1-31.023407 65.498074 40.049778 40.049778 0 0 1-25.41037-71.111111 40.201481 40.201481 0 0 1 56.433777 5.613037z m69.707852-48.621037a39.973926 39.973926 0 1 1 0 80.061629 39.973926 39.973926 0 0 1-40.011852-40.049777c0-22.148741 17.863111-40.011852 40.011852-40.011852z" fill="#FFFFFF" p-id="5354"></path><path d="M490.68563 809.908148c1.706667 5.044148 5.044148 8.38163 10.088296 8.38163 5.006222 0 8.343704-3.337481 10.05037-8.343704l6.712889-92.122074a16.801185 16.801185 0 0 0-16.763259-16.763259c-10.088296 0-16.763259 8.38163-16.763259 18.432l6.674963 90.415407z m10.088296 25.144889c-10.088296 0-16.763259 6.674963-16.763259 16.725333s6.674963 16.763259 16.763259 16.76326c10.05037 0 16.763259-6.712889 16.763259-16.76326s-6.712889-16.725333-16.763259-16.725333z m158.568296 36.181333l-135.471407-235.064889a26.548148 26.548148 0 0 0-46.193778 0l-135.509333 235.064889a26.548148 26.548148 0 0 0 23.134815 39.973926h270.942814a26.548148 26.548148 0 0 0 23.134815-39.973926z m-21.31437 14.260149a1.972148 1.972148 0 0 1-1.782519 0.986074H365.302519a1.972148 1.972148 0 0 1-1.820445-3.109926l135.509333-234.458074a1.972148 1.972148 0 0 1 3.413334 0l135.623111 234.609777c0.379259 0.606815 0.379259 1.365333 0 1.972149z" fill="#FF6A00" p-id="5355"></path><path d="M490.68563 809.908148c1.706667 5.044148 5.044148 8.38163 10.088296 8.38163 5.006222 0 8.343704-3.337481 10.05037-8.343704l6.712889-92.122074a16.801185 16.801185 0 0 0-16.763259-16.763259c-10.088296 0-16.763259 8.38163-16.763259 18.432l6.674963 90.415407z m10.088296 25.144889c-10.088296 0-16.763259 6.674963-16.763259 16.725333s6.674963 16.763259 16.763259 16.76326c10.05037 0 16.763259-6.712889 16.763259-16.76326s-6.712889-16.725333-16.763259-16.725333z m158.568296 36.181333l-135.471407-235.064889a26.548148 26.548148 0 0 0-46.193778 0l-135.509333 235.064889a26.548148 26.548148 0 0 0 23.134815 39.973926h270.942814a26.548148 26.548148 0 0 0 23.134815-39.973926z m-21.31437 14.260149a1.972148 1.972148 0 0 1-1.782519 0.986074H365.302519a1.972148 1.972148 0 0 1-1.820445-3.109926l135.509333-234.458074a1.972148 1.972148 0 0 1 3.413334 0l135.623111 234.609777c0.379259 0.606815 0.379259 1.365333 0 1.972149z" fill="#FFFFFF" p-id="5356"></path></svg>