<svg t="1752135942366" class="icon" viewBox="0 0 1024 1024" version="1.1" xmlns="http://www.w3.org/2000/svg" p-id="5139" width="128" height="128"><path d="M557.3 513.5L685.4 385c12-12 11.9-31.5-0.1-43.5s-31.5-11.9-43.5 0.1L513.9 470l-128-128.4c-12-12-31.4-12.1-43.5-0.1-12 12-12 31.4-0.1 43.5l128.2 128.6-128.2 128.5c-12 12-11.9 31.5 0.1 43.5 6 6 13.8 9 21.7 9 7.9 0 15.8-3 21.8-9l128-128.4 128 128.4c6 6 13.9 9 21.8 9s15.7-3 21.7-9c12-12 12-31.4 0.1-43.5L557.3 513.5z" fill="" p-id="5140"></path><path d="M513 98.5c-229.2 0-415 185.8-415 415s185.8 415 415 415 415-185.8 415-415-185.8-415-415-415z m0 768.5c-195.2 0-353.5-158.3-353.5-353.5S317.8 160 513 160s353.5 158.3 353.5 353.5S708.2 867 513 867z" fill="" p-id="5141"></path></svg>