<?xml version="1.0" standalone="no"?><!DOCTYPE svg PUBLIC "-//W3C//DTD SVG 1.1//EN" "http://www.w3.org/Graphics/SVG/1.1/DTD/svg11.dtd"><svg t="1752573423709" class="icon" viewBox="0 0 1024 1024" version="1.1" xmlns="http://www.w3.org/2000/svg" p-id="5013" width="48" height="48" xmlns:xlink="http://www.w3.org/1999/xlink"><path d="M913.14 491.51L761.09 345.12c-12.16-11.71-30.41-11.71-42.57 0s-12.16 29.28 0 40.99l100.35 96.61H526.93c-18.25 0-30.41 11.71-30.41 29.28s12.16 29.28 30.41 29.28h291.93l-100.34 96.61c-12.16 11.71-12.16 29.28 0 40.99 6.08 5.86 12.16 8.78 21.28 8.78 9.13 0 15.21-2.93 21.29-8.78l152.05-149.31s0-2.93 3.04-2.93c9.13-8.79 9.13-26.35-3.04-35.13z" p-id="5014"></path><path d="M831.03 716.94c-18.25 0-30.41 11.71-30.41 29.28v58.56c0 17.56-12.16 29.28-30.41 29.28H253.24c-18.25 0-30.41-11.71-30.41-29.28V219.23c0-17.56 12.16-29.28 30.41-29.28H770.2c18.25 0 30.41 11.71 30.41 29.28v58.56c0 17.56 12.16 29.28 30.41 29.28s30.41-11.71 30.41-29.28v-58.56c0-49.77-39.53-87.83-91.23-87.83H253.24c-51.69 0-91.23 38.06-91.23 87.83v585.54c0 49.77 39.54 87.83 91.23 87.83H770.2c51.7 0 91.23-38.06 91.23-87.83v-58.56c0.01-17.56-12.16-29.27-30.4-29.27z" p-id="5015"></path></svg>